#!OML:ASF H:\Martial Arts Walks\Project 1\Capture day 1\Session 1\male.ASF
:FULLY-SPECIFIED
:DEGREES
2276
root 0.132776 13.2193 -25.1681 360.542 0.145284 -4.36077
lowerback 15.2877 1.86733 -1.77623
upperback 0.392566 2.41977 2.96647
thorax -8.38239 1.30668 3.65686
lowerneck -4.99634 -3.38049 -5.85042
upperneck 4.36877 -4.32661 4.20706
head 2.5268 -2.13597 2.22735
rclavicle 1.82136e-014 -1.80894e-014
rhumerus 4.22435 30.6832 -65.014
rradius 111.214
rwrist -76.6444
rhand -5.42446 -31.8313
rfingers 7.12502
rthumb 20.3855 -60.7813
lclavicle 1.82136e-014 -1.80894e-014
lhumerus 42.9033 -33.9635 76.3771
lradius 45.1161
lwrist -34.0581
lhand -45.0619 400.568
lfingers 7.12502
lthumb -17.8432 69.7695
rfemur -42.2634 -15.5908 0.0731801
rtibia 79.7539
rfoot -42.6167 10.1214
rtoes -45.9329
lfemur -48.0085 26.3528 -4.8461
ltibia 91.0192
lfoot -32.1613 13.5867
ltoes -14.8534
2277
root 0.103401 13.1978 -25.1537 360.58 0.0258926 -4.22545
lowerback 15.5486 1.78313 -1.99146
upperback 0.153061 2.27219 2.95738
thorax -8.78696 1.25273 3.80016
lowerneck -5.11895 -3.25021 -5.77825
upperneck 4.73634 -4.15189 4.08983
head 2.657 -2.05164 2.18196
rclavicle -9.61621e-015 1.27222e-014
rhumerus 1.18125 30.9821 -65.9519
rradius 111.914
rwrist -77.2432
rhand -6.49471 -30.4936
rfingers 7.12502
rthumb 19.3567 -59.5502
lclavicle -9.61621e-015 1.27222e-014
lhumerus 42.8194 -33.1134 76.6683
lradius 44.1343
lwrist -34.8041
lhand -46.2733 400.756
lfingers 7.12502
lthumb -19.0085 69.8467
rfemur -42.5744 -15.6584 0.0553388
rtibia 80.2056
rfoot -42.7 9.70894
rtoes -45.9607
lfemur -47.9946 26.6253 -4.78653
ltibia 91.1523
lfoot -32.2511 13.487
ltoes -15.1029
2278
root 0.0754651 13.1772 -25.1388 360.614 -0.111482 -4.12338
lowerback 15.8208 1.7113 -2.16105
upperback -0.109964 2.14775 2.94812
thorax -9.22476 1.21028 3.9138
lowerneck -5.16184 -3.13113 -5.67573
upperneck 5.09576 -3.99778 3.96588
head 2.77045 -1.97812 2.12896
rclavicle 5.93869e-015 -8.74653e-015
rhumerus -2.02001 31.2905 -67.0056
rradius 112.841
rwrist -78.6729
rhand -8.61016 -30.1967
rfingers 7.12502
rthumb 17.3217 -59.4448
lclavicle 5.93869e-015 -8.74653e-015
lhumerus 42.7881 -32.3886 76.9008
lradius 43.273
lwrist -35.0994
lhand -46.3945 399.832
lfingers 7.12502
lthumb -19.1251 68.9112
rfemur -42.8823 -15.6909 0.081096
rtibia 80.6274
rfoot -42.7426 9.34223
rtoes -46.0273
lfemur -47.9528 26.9075 -4.68592
ltibia 91.2809
lfoot -32.3499 13.4116
ltoes -15.4692
2279
root 0.0490857 13.1573 -25.1247 360.649 -0.249148 -4.04494
lowerback 16.0974 1.66977 -2.316
upperback -0.347307 2.06612 2.95889
thorax -9.64257 1.18896 4.03236
lowerneck -5.2877 -3.04396 -5.57578
upperneck 5.46414 -3.88088 3.83227
head 2.90527 -1.92284 2.07113
rclavicle -4.24902e-015 -1.78906e-014
rhumerus -5.19408 31.3995 -67.9753
rradius 113.383
rwrist -78.7881
rhand -7.6099 -30.8642
rfingers 7.12502
rthumb 18.2842 -60.0249
lclavicle -4.24902e-015 -1.78906e-014
lhumerus 42.8786 -31.7992 77.0552
lradius 42.4175
lwrist -35.2632
lhand -45.9722 400.329
lfingers 7.12502
lthumb -18.719 69.4486
rfemur -43.168 -15.7199 0.122863
rtibia 81.0352
rfoot -42.8304 8.98652
rtoes -46.1424
lfemur -47.9192 27.1784 -4.56196
ltibia 91.4138
lfoot -32.4306 13.3363
ltoes -15.8097
2280
root 0.0241479 13.1383 -25.1099 360.676 -0.380862 -3.95652
lowerback 16.3539 1.64093 -2.40199
upperback -0.552586 2.01 2.93955
thorax -10.0133 1.17512 4.07335
lowerneck -5.4401 -2.98668 -5.51309
upperneck 5.80031 -3.80175 3.74397
head 3.03981 -1.88542 2.03355
rclavicle 2.45996e-015 1.96797e-014
rhumerus -8.30797 31.467 -68.925
rradius 113.959
rwrist -79.0282
rhand -8.35767 -30.9191
rfingers 7.12502
rthumb 17.5647 -60.1457
lclavicle 2.45996e-015 1.96797e-014
lhumerus 43.0049 -31.2504 77.226
lradius 41.5764
lwrist -35.6448
lhand -46.0139 400.43
lfingers 7.12502
lthumb -18.759 69.5456
rfemur -43.4144 -15.734 0.131445
rtibia 81.4233
rfoot -42.8669 8.60264
rtoes -46.256
lfemur -47.8609 27.4273 -4.45216
ltibia 91.542
lfoot -32.5478 13.2243
ltoes -16.0633
2281
root -0.000295293 13.117 -25.0963 360.707 -0.524863 -3.90156
lowerback 16.6422 1.60787 -2.41557
upperback -0.763212 1.96162 2.922
thorax -10.4078 1.16204 4.07342
lowerneck -5.53568 -2.91412 -5.55027
upperneck 6.04044 -3.70155 3.7502
head 3.13636 -1.8368 2.04745
rclavicle -1.59525e-014 -2.48481e-014
rhumerus -11.3872 31.557 -69.8765
rradius 114.373
rwrist -78.8695
rhand -8.99338 -31.1413
rfingers 7.12502
rthumb 16.9528 -60.4215
lclavicle -1.59525e-014 -2.48481e-014
lhumerus 43.1265 -30.6946 77.3898
lradius 40.757
lwrist -36.14
lhand -45.8148 400.118
lfingers 7.12502
lthumb -18.5676 69.2521
rfemur -43.691 -15.7413 0.184125
rtibia 81.82
rfoot -42.9266 8.20625
rtoes -46.4052
lfemur -47.8334 27.6976 -4.30002
ltibia 91.6866
lfoot -32.6563 13.0753
ltoes -16.2469
2282
root -0.0226792 13.0955 -25.084 360.728 -0.641702 -3.82122
lowerback 16.9372 1.55929 -2.43365
upperback -0.958963 1.88966 2.89155
thorax -10.7888 1.13729 4.06865
lowerneck -5.58288 -2.80955 -5.50649
upperneck 6.19353 -3.56166 3.6959
head 3.18755 -1.76868 2.02827
rclavicle 3.19546e-014 2.08724e-014
rhumerus -14.4 31.6037 -70.7762
rradius 114.656
rwrist -78.2901
rhand -8.90961 -31.7871
rfingers 7.12502
rthumb 17.0334 -61.0603
lclavicle 3.19546e-014 2.08724e-014
lhumerus 43.2259 -30.1088 77.5431
lradius 39.9713
lwrist -36.6246
lhand -45.751 400.313
lfingers 7.12502
lthumb -18.5062 69.4523
rfemur -43.9512 -15.8006 0.20163
rtibia 82.2137
rfoot -42.9372 7.85369
rtoes -46.4955
lfemur -47.8214 27.9112 -4.19907
ltibia 91.8286
lfoot -32.7471 13.0078
ltoes -16.4986
2283
root -0.0434646 13.0765 -25.0695 360.753 -0.747101 -3.64641
lowerback 17.1853 1.47649 -2.53118
upperback -1.15928 1.7517 2.82396
thorax -11.1446 1.08469 4.08724
lowerneck -5.49234 -2.65129 -5.384
upperneck 6.25867 -3.35771 3.58461
head 3.17498 -1.66962 1.9791
rclavicle 1.30452e-014 -1.39149e-014
rhumerus -17.2731 31.6912 -71.7294
rradius 114.882
rwrist -78.0247
rhand -9.88322 -31.5049
rfingers 7.12502
rthumb 16.0961 -60.8564
lclavicle 1.30452e-014 -1.39149e-014
lhumerus 43.257 -29.4633 77.6533
lradius 39.2197
lwrist -37.0151
lhand -45.7295 400.292
lfingers 7.12502
lthumb -18.4855 69.4338
rfemur -44.2101 -15.9309 0.116646
rtibia 82.6036
rfoot -42.945 7.513
rtoes -46.5743
lfemur -47.7682 28.0842 -4.21785
ltibia 91.9471
lfoot -32.8628 12.954
ltoes -16.6386
2284
root -0.0645855 13.0567 -25.058 360.774 -0.849 -3.56718
lowerback 17.5033 1.37665 -2.5729
upperback -1.36475 1.60528 2.79713
thorax -11.5469 1.02789 4.12281
lowerneck -5.45778 -2.45803 -5.22202
upperneck 6.34619 -3.10664 3.46179
head 3.17766 -1.54621 1.92084
rclavicle 1.4064e-014 9.14409e-015
rhumerus -19.9994 31.8201 -72.6201
rradius 115.026
rwrist -77.7451
rhand -10.1384 -31.9876
rfingers 7.12502
rthumb 15.8504 -61.3589
lclavicle 1.4064e-014 9.14409e-015
lhumerus 43.2844 -28.7993 77.709
lradius 38.4861
lwrist -37.2408
lhand -45.5919 400.391
lfingers 7.12502
lthumb -18.3531 69.5448
rfemur -44.4961 -16.0394 0.152516
rtibia 82.9901
rfoot -42.9144 7.11999
rtoes -46.6288
lfemur -47.7605 28.2664 -4.13565
ltibia 92.0797
lfoot -32.9196 12.9454
ltoes -16.9286
